<?xml version="1.0" encoding="UTF-8"?>
<svg xmlns="http://www.w3.org/2000/svg" width="542" height="111" viewBox="0 0 542 111" fill="none">
  <path d="M45.5996 63.4018V81.154C45.5996 81.2544 45.5258 81.3374 45.4292 81.351C45.416 81.351 45.4027 81.3548 45.3895 81.3548H39.601C39.601 81.3548 39.5802 81.3548 39.5708 81.351C39.4799 81.3317 39.408 81.2486 39.408 81.1501V62.89C39.408 62.8456 39.408 62.8012 39.4061 62.7567C39.408 62.6891 39.4061 62.6215 39.4042 62.5559C39.4042 62.4747 39.4042 62.3955 39.4004 62.3164C39.1676 51.813 32.5046 42.6444 22.673 39.384L11.327 35.6254L5.44394 33.6688L2.16735 32.5834C1.86071 32.4829 1.69981 32.143 1.8096 31.8339L3.5397 26.9898C3.6438 26.6962 3.95802 26.5417 4.24953 26.6364L15.0901 30.2347L24.1172 33.2265C26.8354 34.1305 29.406 35.4014 31.7588 37.0025C33.5135 38.1962 35.1509 39.5733 36.633 41.1088C36.9075 41.3928 37.1763 41.6806 37.4413 41.9761C38.1378 42.7525 38.7947 43.5618 39.4061 44.3962C39.743 44.8559 40.0686 45.3233 40.379 45.7985C41.174 47.0114 41.882 48.2765 42.5028 49.5822C43.0385 50.7102 43.508 51.871 43.9074 53.0569C44.1818 53.8662 44.4222 54.6851 44.6304 55.5157C44.8216 56.2767 44.9844 57.0454 45.1188 57.8199C45.4027 59.4404 45.5617 61.0879 45.5958 62.7548C45.5996 62.9692 45.6015 63.1836 45.6015 63.3999L45.5996 63.4018Z" fill="#2DBD32"></path>
  <path d="M85 42.6366C85 54.2196 80.5782 65.1093 72.5505 73.2987C64.5247 81.4881 53.8526 86 42.5009 86C31.1493 86 20.4148 81.4302 12.4457 73.2987C4.47667 65.1672 0 54.2196 0 42.6366C0 41.9529 0.017036 41.2576 0.049215 40.5603C0.066251 40.1779 0.435364 39.9152 0.793119 40.033L5.6389 41.64L5.74869 41.6748C5.74869 41.6748 5.75248 41.6767 5.75437 41.6786C5.9872 41.781 6.15755 42.005 6.18973 42.2716C6.18784 42.3334 6.18784 42.3971 6.18784 42.4589V42.6308C6.18784 61.3757 19.9226 77.1925 38.1378 79.4214C39.5613 79.5972 41.0302 79.686 42.5028 79.686C43.9755 79.686 45.4425 79.5972 46.8678 79.4214C65.0812 77.1925 78.8178 61.3757 78.8178 42.6308C78.8178 42.5497 78.8178 42.4686 78.814 42.3875C78.814 42.3488 78.814 42.3083 78.8122 42.2677V42.2214C78.8387 41.9587 79.0014 41.7346 79.2286 41.6245L79.4027 41.5666L84.2069 39.9751C84.5627 39.8573 84.93 40.1199 84.9489 40.5024C84.983 41.2112 85 41.9259 85 42.6366Z" fill="#2DBD32"></path>
  <path d="M45.592 41.6149V50.743C45.4955 51.3051 45.399 51.8381 45.3024 52.3423C45.0734 53.5572 44.8481 54.6079 44.6286 55.5176C43.3092 60.9952 42.2359 61.3313 41.9955 61.3313C41.8498 61.3313 41.422 61.2347 40.6175 60.3405C40.3487 60.0411 40.0383 59.6529 39.6806 59.1468C39.5916 59.0213 39.4988 58.8861 39.4042 58.7451V54.7295C39.4042 54.5866 39.4042 54.4437 39.4004 54.3008V54.2892C39.3455 49.6981 38.401 45.2403 36.6311 41.1108C35.6714 38.8703 34.4675 36.7283 33.0327 34.7118L23.8939 21.8753L23.875 21.8521L19.4683 15.6618L17.6739 13.1489L16.1368 10.9915C15.9495 10.7288 16.01 10.3599 16.2712 10.1745L20.4204 7.23284C20.6741 7.05322 21.0224 7.11309 21.2041 7.36805L45.5901 41.6149H45.592Z" fill="white"></path>
  <path d="M45.592 1.57944V50.1327C45.5371 50.2234 45.4804 50.3142 45.4274 50.405C44.8936 51.278 44.3863 52.1626 43.9055 53.0569C42.6335 55.4133 41.5375 57.8431 40.6175 60.3405C40.256 61.3255 39.9209 62.3183 39.6143 63.3226C39.5443 63.5525 39.4761 63.7823 39.408 64.0141C39.4061 64.018 39.4061 64.0238 39.4042 64.0276V1.57944C39.4042 1.25882 39.6578 1 39.9721 1H45.0242C45.3384 1 45.592 1.25882 45.592 1.57944Z" fill="#FCCE1A"></path>
  <path d="M68.7193 10.1687C68.9805 10.3541 69.0411 10.723 68.8556 10.9857L63.6691 18.2635L50.523 36.7341C49.3646 38.3623 48.3859 40.1064 47.6023 41.9317C46.6274 44.1953 45.9498 46.5846 45.592 49.0375C45.5258 49.4914 45.469 49.9472 45.4274 50.405C45.3668 50.9979 45.3289 51.5948 45.3081 52.1935L45.3024 52.3384L45.3024 52.3423L44.9977 61.3313L39.6143 63.3226L39.408 63.3999H39.4004L39.4004 54.2892C39.4004 54.1366 39.4023 53.984 39.4042 53.8314C39.4383 51.1119 39.7657 48.4195 40.3771 45.8004C40.9942 43.1408 41.9028 40.5565 43.0859 38.0977C43.8165 36.5757 44.6532 35.1001 45.592 33.6862C45.6886 33.5394 45.787 33.3946 45.8854 33.2497L58.6719 14.5473L60.5326 11.9418L63.7902 7.36612C63.9719 7.11116 64.3202 7.05129 64.5739 7.23091L68.7193 10.1706V10.1687Z" fill="#F06351"></path>
  <path d="M83.1923 31.8359C83.3021 32.1449 83.1393 32.4848 82.8345 32.5853L79.5617 33.6688L73.6749 35.6254L71.8293 36.2338L62.3289 39.384C52.3648 42.6888 45.6545 52.0661 45.5958 62.7471C45.5939 62.7509 45.5939 62.7529 45.5958 62.7567C45.5939 62.8011 45.5939 62.8456 45.5939 62.89V81.1501C45.5939 81.2486 45.522 81.3317 45.4311 81.351C45.4179 81.351 45.4046 81.3548 45.3914 81.3548H39.6029C39.6029 81.3548 39.5821 81.3548 39.5726 81.351C39.478 81.3374 39.4023 81.2544 39.4023 81.154V63.4018C39.4023 63.2357 39.4042 63.0716 39.4061 62.9055C39.4061 62.861 39.408 62.8147 39.408 62.7702V62.7567C39.4326 61.5418 39.5234 60.3385 39.6824 59.1468C40.1216 55.8131 41.0756 52.5895 42.5028 49.5841C43.3622 47.7705 44.3957 46.0341 45.5939 44.4039C46.2072 43.5676 46.864 42.7564 47.5625 41.978C47.5758 41.9626 47.589 41.949 47.6042 41.9336C49.285 40.0639 51.1817 38.4067 53.245 37.0045C55.5978 35.4033 58.1684 34.1324 60.8884 33.2285L69.9137 30.2385L71.7612 29.6224L80.7543 26.6383C81.0458 26.5417 81.3581 26.6982 81.4641 26.9918L83.1942 31.8378L83.1923 31.8359Z" fill="#2DBD32"></path>
  <path d="M26.8998 51.1235L14.7513 55.141C14.4522 55.2395 14.1323 55.0734 14.0357 54.7682L12.4855 49.8816C12.3889 49.5764 12.5517 49.25 12.8508 49.1515L24.9974 45.1224C25.2965 45.0239 25.6164 45.19 25.7129 45.4952L27.2651 50.3934C27.3617 50.6986 27.1989 51.025 26.8998 51.1235Z" fill="#2DBD32"></path>
  <path d="M32.94 61.4221L28.1623 68.1359C27.9768 68.3947 27.621 68.4526 27.3673 68.2633L23.2957 65.2271C23.0421 65.0378 22.9872 64.6766 23.1708 64.4178L27.9503 57.704C28.1358 57.4452 28.4917 57.3873 28.7454 57.5765L32.8151 60.6109C33.0668 60.8002 33.1236 61.1613 32.94 61.4182V61.4221Z" fill="#2DBD32"></path>
  <path d="M58.0775 51.1235L70.226 55.141C70.5251 55.2395 70.845 55.0734 70.9415 54.7682L72.4918 49.8816C72.5884 49.5764 72.4256 49.25 72.1265 49.1515L59.9798 45.1224C59.6808 45.0239 59.3609 45.19 59.2643 45.4952L57.7122 50.3934C57.6156 50.6986 57.7784 51.025 58.0775 51.1235Z" fill="#2DBD32"></path>
  <path d="M52.0373 61.4221L56.8149 68.1359C57.0004 68.3947 57.3563 68.4526 57.61 68.2633L61.6815 65.2271C61.9352 65.0378 61.9901 64.6766 61.8065 64.4178L57.0269 57.704C56.8414 57.4452 56.4856 57.3873 56.2319 57.5765L52.1622 60.6109C51.9105 60.8002 51.8537 61.1613 52.0373 61.4182V61.4221Z" fill="#2DBD32"></path>
  <path d="M119.816 18.2402C119.816 20.5752 118.945 22.3631 117.204 23.6039C115.473 24.8335 112.928 25.4483 109.569 25.4483C103.518 25.4483 99.9953 23.2655 99 18.9001L103.835 18.1048C104.163 19.3682 104.802 20.2875 105.752 20.8628C106.702 21.4269 108.02 21.7089 109.705 21.7089C111.458 21.7089 112.77 21.4438 113.641 20.9136C114.512 20.3834 114.947 19.5882 114.947 18.5278C114.947 17.851 114.749 17.2926 114.353 16.8527C113.958 16.4128 113.392 16.0462 112.657 15.7529C112.295 15.6062 111.763 15.4483 111.062 15.2791C110.361 15.0986 109.49 14.9012 108.45 14.6869C107.251 14.4049 106.312 14.168 105.633 13.9762C104.955 13.7732 104.412 13.5814 104.005 13.4009C103.598 13.2092 103.202 13.0005 102.817 12.7749C101.969 12.2673 101.307 11.5905 100.832 10.7444C100.357 9.89843 100.12 8.84372 100.12 7.58033C100.12 5.4258 100.928 3.77889 102.546 2.63958C104.174 1.48899 106.538 0.913701 109.637 0.913701C112.6 0.913701 114.823 1.37619 116.304 2.30117C117.797 3.22615 118.759 4.75463 119.189 6.8866L114.337 7.54649C114.088 6.51999 113.579 5.74729 112.81 5.2284C112.052 4.70951 110.96 4.45006 109.535 4.45006C108.02 4.45006 106.883 4.68695 106.125 5.16072C105.368 5.63449 104.989 6.34515 104.989 7.29269C104.989 7.9131 105.147 8.42071 105.464 8.81552C105.792 9.21033 106.272 9.54874 106.906 9.83075C107.505 10.1015 108.789 10.4455 110.757 10.8629C111.899 11.1111 112.883 11.3479 113.709 11.5735C114.534 11.7879 115.196 11.9966 115.694 12.1996C116.191 12.4139 116.632 12.6395 117.017 12.8764C117.413 13.1133 117.752 13.3671 118.035 13.6378C118.612 14.1906 119.053 14.8505 119.358 15.6175C119.664 16.3733 119.816 17.2475 119.816 18.2402Z" fill="white"></path>
  <path d="M127.324 15.296V25.1099H122.557V10.8967C122.557 9.91535 122.54 9.11445 122.506 8.49403C122.484 7.86234 122.455 7.29833 122.421 6.802H126.968C126.991 6.93736 127.019 7.25885 127.053 7.76646C127.087 8.26279 127.115 8.77604 127.138 9.30621C127.172 9.82511 127.189 10.203 127.189 10.4399H127.257C127.845 9.04113 128.574 8.0259 129.445 7.39421C130.327 6.76251 131.379 6.44667 132.601 6.44667C134.003 6.44667 135.128 6.77944 135.977 7.44497C136.836 8.11051 137.413 9.10881 137.707 10.4399H137.809C138.431 9.01857 139.177 7.9977 140.048 7.37729C140.919 6.75688 142.028 6.44667 143.373 6.44667C145.16 6.44667 146.523 7.0558 147.462 8.27407C148.401 9.48106 148.87 11.2182 148.87 13.4855V25.1099H144.137V14.8392C144.137 13.2261 143.905 12.0191 143.441 11.2182C142.978 10.4173 142.282 10.0169 141.355 10.0169C140.427 10.0169 139.652 10.4681 139.03 11.3705C138.408 12.2616 138.097 13.4968 138.097 15.0761V25.1099H133.364V14.8392C133.364 13.2261 133.132 12.0191 132.668 11.2182C132.205 10.4173 131.509 10.0169 130.582 10.0169C129.62 10.0169 128.834 10.5076 128.224 11.4889C127.624 12.4703 127.324 13.7394 127.324 15.296Z" fill="white"></path>
  <path d="M156.667 25.4483C154.891 25.4483 153.505 24.9689 152.51 24.01C151.515 23.0399 151.017 21.6807 151.017 19.9322C151.017 18.0371 151.634 16.5989 152.866 15.6175C154.111 14.6361 155.909 14.1229 158.261 14.0778L162.214 14.0101V13.0795C162.214 11.8838 162.005 10.9983 161.587 10.423C161.168 9.83639 160.484 9.5431 159.534 9.5431C158.652 9.5431 158.001 9.74614 157.583 10.1522C157.176 10.547 156.921 11.2069 156.819 12.1319L151.849 11.895C152.471 8.27407 155.1 6.46359 159.737 6.46359C162.056 6.46359 163.843 7.03324 165.098 8.17255C166.354 9.31185 166.981 10.9306 166.981 13.0287V19.6953C166.981 20.7218 167.095 21.4325 167.321 21.8273C167.558 22.2108 167.948 22.4026 168.491 22.4026C168.853 22.4026 169.204 22.3688 169.543 22.3011V24.873C168.955 25.0196 168.452 25.1268 168.033 25.1945C167.615 25.2734 167.1 25.3129 166.489 25.3129C165.291 25.3129 164.403 25.0196 163.826 24.433C163.26 23.8465 162.921 22.9835 162.808 21.8442H162.706C162.039 23.0399 161.202 23.9423 160.195 24.5515C159.189 25.1493 158.013 25.4483 156.667 25.4483ZM162.214 16.6327L159.771 16.6666C158.652 16.723 157.866 16.8414 157.413 17.0219C156.949 17.225 156.593 17.5295 156.344 17.9356C156.107 18.3417 155.988 18.8832 155.988 19.56C155.988 20.4285 156.186 21.0772 156.582 21.5058C156.989 21.9232 157.526 22.1319 158.194 22.1319C158.94 22.1319 159.624 21.9288 160.246 21.5227C160.857 21.1166 161.338 20.5583 161.688 19.8476C162.039 19.1257 162.214 18.3643 162.214 17.5634V16.6327Z" fill="white"></path>
  <path d="M175.491 0V25.1099H170.723V0H175.491Z" fill="white"></path>
  <path d="M184.118 0V25.1099H179.351V0H184.118Z" fill="white"></path>
  <path d="M195.708 18.5955C195.708 17.0727 196.166 15.719 197.082 14.5346C197.998 13.3389 199.451 12.2786 201.442 11.3536C201.023 10.5076 200.707 9.68974 200.492 8.90012C200.288 8.11051 200.186 7.35473 200.186 6.63279C200.186 4.87307 200.741 3.51944 201.849 2.5719C202.957 1.61308 204.535 1.13367 206.582 1.13367C208.482 1.13367 209.981 1.58488 211.078 2.4873C212.186 3.38972 212.741 4.61363 212.741 6.15902C212.741 7.0276 212.52 7.81158 212.079 8.51095C211.638 9.21033 211.016 9.85895 210.213 10.4568C209.806 10.7501 209.257 11.0885 208.567 11.472C207.889 11.8443 207.063 12.256 206.09 12.7072C207.221 14.7038 208.601 16.5989 210.23 18.3925C211.406 16.5989 212.3 14.5515 212.91 12.2504L216.456 13.4348C215.698 16.0292 214.607 18.3981 213.182 20.5414C214.143 21.3648 215.15 21.7765 216.201 21.7765C216.948 21.7765 217.61 21.6863 218.186 21.5058V24.9407C217.576 25.1888 216.835 25.3129 215.964 25.3129C214.991 25.3129 214.013 25.1381 213.029 24.7884C212.056 24.4387 211.168 23.9311 210.365 23.2655C208.454 24.7207 206.311 25.4483 203.936 25.4483C201.323 25.4483 199.299 24.8504 197.862 23.6547C196.426 22.4477 195.708 20.7613 195.708 18.5955ZM208.94 6.19286C208.94 5.54989 208.725 5.02536 208.296 4.61927C207.866 4.21318 207.283 4.01013 206.548 4.01013C205.677 4.01013 205.01 4.25266 204.546 4.73771C204.094 5.22276 203.868 5.86573 203.868 6.66663C203.868 7.63674 204.173 8.72528 204.784 9.93227C205.983 9.42466 206.837 8.99601 207.346 8.64632C207.855 8.29663 208.245 7.92438 208.516 7.52957C208.799 7.13476 208.94 6.68919 208.94 6.19286ZM207.549 20.9474C206.611 19.9097 205.757 18.8606 204.988 17.8002C204.218 16.7286 203.534 15.6514 202.935 14.5685C200.989 15.4822 200.017 16.8019 200.017 18.5278C200.017 19.6446 200.384 20.5414 201.119 21.2182C201.855 21.895 202.856 22.2334 204.122 22.2334C204.857 22.2334 205.519 22.098 206.107 21.8273C206.707 21.5566 207.187 21.2633 207.549 20.9474Z" fill="white"></path>
  <path d="M233.644 10.6598V25.1099H229.199V1.26903H235.9L240.175 14.6023C240.368 15.3468 240.566 16.0969 240.769 16.8527C240.973 17.5972 241.171 18.3417 241.363 19.0862C241.487 18.6575 241.606 18.2345 241.719 17.8172C241.832 17.3885 241.945 16.9599 242.058 16.5312C242.183 16.1026 242.307 15.6796 242.432 15.2622L246.826 1.26903H253.493V25.1099H249.048V10.6598C249.048 10.3327 249.059 9.67846 249.082 8.69708C249.116 7.70442 249.161 6.62715 249.218 5.46529C248.822 6.97684 248.471 8.26279 248.166 9.32313C247.872 10.3835 247.629 11.2126 247.436 11.8104L243.127 25.1099H239.565L235.255 11.8104L233.44 5.46529C233.508 6.7738 233.559 7.86234 233.593 8.73092C233.627 9.58822 233.644 10.2312 233.644 10.6598Z" fill="white"></path>
  <path d="M261.137 16.8696C261.137 18.6519 261.465 19.9999 262.121 20.9136C262.788 21.816 263.732 22.2672 264.954 22.2672C265.791 22.2672 266.475 22.0867 267.007 21.7258C267.55 21.3535 267.929 20.8064 268.143 20.0845L272.639 20.4737C271.338 23.7901 268.698 25.4483 264.716 25.4483C261.957 25.4483 259.836 24.6361 258.354 23.0117C256.873 21.3761 256.132 18.996 256.132 15.8713C256.132 12.8482 256.884 10.5245 258.388 8.90012C259.893 7.27577 262.025 6.46359 264.784 6.46359C267.42 6.46359 269.433 7.33781 270.824 9.08625C272.215 10.8234 272.911 13.3727 272.911 16.7343V16.8696H261.137ZM268.296 13.8916C268.206 12.4139 267.849 11.3085 267.227 10.5752C266.605 9.83075 265.768 9.4585 264.716 9.4585C263.597 9.4585 262.732 9.84767 262.121 10.626C261.521 11.4043 261.205 12.4929 261.171 13.8916H268.296Z" fill="white"></path>
  <path d="M287.391 25.1099C287.369 24.9971 287.335 24.7602 287.29 24.3992C287.244 24.0382 287.205 23.6434 287.171 23.2148C287.148 22.7861 287.137 22.4252 287.137 22.1319H287.069C286.549 23.2373 285.802 24.0664 284.83 24.6192C283.857 25.1719 282.647 25.4483 281.199 25.4483C279.062 25.4483 277.41 24.6192 276.245 22.961C275.08 21.2915 274.498 18.9621 274.498 15.9728C274.498 12.9385 275.109 10.5978 276.33 8.95089C277.563 7.29269 279.305 6.46359 281.555 6.46359C282.856 6.46359 283.976 6.73431 284.914 7.27577C285.865 7.81722 286.594 8.62376 287.103 9.69538H287.137L287.103 6.68355V0H291.87V21.1166C291.87 21.6807 291.882 22.2954 291.904 22.961C291.927 23.6265 291.961 24.3428 292.006 25.1099H287.391ZM279.469 15.9728C279.469 18.0484 279.78 19.6051 280.402 20.6429C281.035 21.6807 281.974 22.1995 283.218 22.1995C284.473 22.1995 285.446 21.6525 286.136 20.5583C286.826 19.4528 287.171 17.8849 287.171 15.8544C287.171 13.8804 286.837 12.3632 286.17 11.3028C285.514 10.2312 284.541 9.69538 283.252 9.69538C281.974 9.69538 281.024 10.2143 280.402 11.2521C279.78 12.2786 279.469 13.8522 279.469 15.9728Z" fill="white"></path>
  <path d="M300.464 0V3.50252H295.697V0H300.464ZM300.464 6.802V25.1099H295.697V6.802H300.464Z" fill="white"></path>
  <path d="M315.997 21.472C315.363 22.8594 314.555 23.869 313.571 24.5007C312.598 25.1324 311.439 25.4483 310.093 25.4483C308.147 25.4483 306.655 24.8561 305.614 23.6716C304.573 22.4759 304.053 20.7275 304.053 18.4263V6.802H308.82V17.0727C308.82 18.6745 309.092 19.8815 309.635 20.6936C310.178 21.4945 310.992 21.895 312.078 21.895C313.231 21.895 314.159 21.4043 314.86 20.4229C315.573 19.4302 315.929 18.1612 315.929 16.6158V6.802H320.696V21.0151C320.696 21.7935 320.707 22.5267 320.73 23.2148C320.753 23.8916 320.787 24.5233 320.832 25.1099H316.285C316.217 24.2977 316.166 23.587 316.132 22.9779C316.099 22.3688 316.082 21.8668 316.082 21.472H315.997Z" fill="white"></path>
  <path d="M329.29 15.296V25.1099H324.523V10.8967C324.523 9.91535 324.506 9.11445 324.472 8.49403C324.449 7.86234 324.421 7.29833 324.387 6.802H328.934C328.956 6.93736 328.985 7.25885 329.018 7.76646C329.052 8.26279 329.081 8.77604 329.103 9.30621C329.137 9.82511 329.154 10.203 329.154 10.4399H329.222C329.81 9.04113 330.54 8.0259 331.411 7.39421C332.293 6.76251 333.345 6.44667 334.566 6.44667C335.969 6.44667 337.094 6.77944 337.942 7.44497C338.802 8.11051 339.379 9.10881 339.673 10.4399H339.774C340.396 9.01857 341.143 7.9977 342.014 7.37729C342.885 6.75688 343.993 6.44667 345.339 6.44667C347.126 6.44667 348.489 7.0558 349.428 8.27407C350.366 9.48106 350.836 11.2182 350.836 13.4855V25.1099H346.102V14.8392C346.102 13.2261 345.871 12.0191 345.407 11.2182C344.943 10.4173 344.248 10.0169 343.32 10.0169C342.393 10.0169 341.618 10.4681 340.996 11.3705C340.374 12.2616 340.063 13.4968 340.063 15.0761V25.1099H335.33V14.8392C335.33 13.2261 335.098 12.0191 334.634 11.2182C334.17 10.4173 333.475 10.0169 332.547 10.0169C331.586 10.0169 330.8 10.5076 330.189 11.4889C329.59 12.4703 329.29 13.7394 329.29 15.296Z" fill="white"></path>
  <path d="M382.41 21.252V25.1099H362.917V1.26903H381.714V5.12688H367.922V11.1167H380.679V14.9745H367.922V21.252H382.41Z" fill="white"></path>
  <path d="M389.918 15.296V25.1099H385.151V10.8967C385.151 9.91535 385.134 9.11445 385.1 8.49403C385.077 7.86234 385.049 7.29833 385.015 6.802H389.562C389.584 6.93736 389.613 7.25885 389.647 7.76646C389.681 8.26279 389.709 8.77604 389.731 9.30621C389.765 9.82511 389.782 10.203 389.782 10.4399H389.85C390.495 9.04113 391.304 8.0259 392.276 7.39421C393.249 6.76251 394.408 6.44667 395.754 6.44667C397.699 6.44667 399.192 7.04452 400.233 8.24023C401.273 9.43594 401.794 11.1844 401.794 13.4855V25.1099H397.043V14.8392C397.043 13.2261 396.772 12.0191 396.229 11.2182C395.686 10.4173 394.866 10.0169 393.769 10.0169C392.615 10.0169 391.682 10.5132 390.97 11.5059C390.269 12.4872 389.918 13.7506 389.918 15.296Z" fill="white"></path>
  <path d="M414.069 24.8391C412.915 25.2227 411.575 25.4144 410.048 25.4144C408.646 25.4144 407.566 25.0365 406.808 24.2808C406.05 23.5137 405.671 22.3575 405.671 20.8121V10.0169H403.347V6.802H405.909L407.402 2.50422H410.388V6.802H413.865V10.0169H410.388V19.5261C410.388 20.4173 410.557 21.0772 410.896 21.5058C411.236 21.9232 411.762 22.1319 412.474 22.1319C412.814 22.1319 413.345 22.0529 414.069 21.895V24.8391Z" fill="white"></path>
  <path d="M419.813 16.8696C419.813 18.6519 420.141 19.9999 420.797 20.9136C421.464 21.816 422.408 22.2672 423.63 22.2672C424.467 22.2672 425.151 22.0867 425.683 21.7258C426.226 21.3535 426.604 20.8064 426.819 20.0845L431.315 20.4737C430.014 23.7901 427.374 25.4483 423.392 25.4483C420.633 25.4483 418.512 24.6361 417.03 23.0117C415.549 21.3761 414.808 18.996 414.808 15.8713C414.808 12.8482 415.56 10.5245 417.064 8.90012C418.569 7.27577 420.701 6.46359 423.46 6.46359C426.095 6.46359 428.109 7.33781 429.5 9.08625C430.891 10.8234 431.587 13.3727 431.587 16.7343V16.8696H419.813ZM426.972 13.8916C426.882 12.4139 426.525 11.3085 425.903 10.5752C425.281 9.83075 424.444 9.4585 423.392 9.4585C422.273 9.4585 421.407 9.84767 420.797 10.626C420.197 11.4043 419.881 12.4929 419.847 13.8916H426.972Z" fill="white"></path>
  <path d="M438.942 16.1251V25.1099H434.175V11.0998C434.175 10.0958 434.158 9.26109 434.124 8.59556C434.101 7.91874 434.073 7.32089 434.039 6.802H438.586C438.608 6.90352 438.631 7.12912 438.654 7.47881C438.676 7.8285 438.699 8.22331 438.721 8.66324C438.744 9.09189 438.761 9.49798 438.772 9.88151C438.795 10.265 438.806 10.5414 438.806 10.7106H438.874C439.326 9.44722 439.739 8.53916 440.113 7.98642C440.474 7.45625 440.904 7.06708 441.402 6.81892C441.9 6.57075 442.522 6.44667 443.268 6.44667C443.879 6.44667 444.371 6.53127 444.744 6.70047V10.6768C443.986 10.5076 443.308 10.423 442.708 10.423C441.521 10.423 440.593 10.9024 439.926 11.8612C439.27 12.82 438.942 14.2413 438.942 16.1251Z" fill="white"></path>
  <path d="M464.043 15.8713C464.043 18.9283 463.427 21.2915 462.194 22.961C460.972 24.6192 459.242 25.4483 457.002 25.4483C454.345 25.4483 452.49 24.3654 451.438 22.1995H451.336C451.404 22.538 451.438 23.5645 451.438 25.2791V32.301H446.671V11.0152C446.671 10.1466 446.659 9.36261 446.637 8.66324C446.614 7.96386 446.58 7.34345 446.535 6.802H451.166C451.212 6.93736 451.246 7.1686 451.268 7.49573C451.302 7.81158 451.325 8.17255 451.336 8.57864C451.359 8.98473 451.37 9.38518 451.37 9.77998H451.438C451.969 8.65196 452.727 7.81158 453.711 7.25885C454.695 6.69483 455.894 6.41283 457.308 6.41283C459.445 6.41283 461.102 7.23629 462.279 8.8832C463.455 10.5188 464.043 12.8482 464.043 15.8713ZM459.072 15.8713C459.072 13.8183 458.755 12.2786 458.122 11.2521C457.5 10.2256 456.556 9.7123 455.289 9.7123C454.022 9.7123 453.049 10.265 452.371 11.3705C451.704 12.476 451.37 14.0214 451.37 16.0067C451.37 17.9807 451.704 19.5092 452.371 20.5921C453.049 21.6637 454.011 22.1995 455.255 22.1995C456.533 22.1995 457.489 21.675 458.122 20.626C458.755 19.5656 459.072 17.9807 459.072 15.8713Z" fill="white"></path>
  <path d="M471.636 16.1251V25.1099H466.869V11.0998C466.869 10.0958 466.852 9.26109 466.818 8.59556C466.795 7.91874 466.767 7.32089 466.733 6.802H471.28C471.302 6.90352 471.325 7.12912 471.347 7.47881C471.37 7.8285 471.393 8.22331 471.415 8.66324C471.438 9.09189 471.455 9.49798 471.466 9.88151C471.489 10.265 471.5 10.5414 471.5 10.7106H471.568C472.02 9.44722 472.433 8.53916 472.806 7.98642C473.168 7.45625 473.598 7.06708 474.096 6.81892C474.593 6.57075 475.216 6.44667 475.962 6.44667C476.573 6.44667 477.065 6.53127 477.438 6.70047V10.6768C476.68 10.5076 476.002 10.423 475.402 10.423C474.215 10.423 473.287 10.9024 472.62 11.8612C471.964 12.82 471.636 14.2413 471.636 16.1251Z" fill="white"></path>
  <path d="M484.132 0V3.50252H479.365V0H484.132ZM484.132 6.802V25.1099H479.365V6.802H484.132Z" fill="white"></path>
  <path d="M503.465 19.763C503.465 21.534 502.735 22.9271 501.276 23.9423C499.828 24.9463 497.821 25.4483 495.253 25.4483C492.731 25.4483 490.797 25.0535 489.451 24.2638C488.117 23.4629 487.229 22.2221 486.788 20.5414L490.978 19.9153C491.216 20.7839 491.623 21.3987 492.2 21.7596C492.788 22.1206 493.806 22.3011 495.253 22.3011C496.588 22.3011 497.561 22.1319 498.171 21.7935C498.782 21.4551 499.088 20.9249 499.088 20.2029C499.088 19.6164 498.839 19.1539 498.341 18.8155C497.855 18.4658 497.023 18.1725 495.847 17.9356C494.954 17.7551 494.151 17.5803 493.438 17.4111C492.737 17.2419 492.132 17.0783 491.623 16.9204C491.125 16.7512 490.718 16.5933 490.401 16.4466C489.463 15.9841 488.744 15.3919 488.247 14.67C487.76 13.948 487.517 13.0569 487.517 11.9966C487.517 10.2481 488.19 8.88884 489.536 7.91874C490.893 6.93736 492.81 6.44667 495.287 6.44667C497.47 6.44667 499.223 6.86968 500.547 7.7157C501.881 8.56172 502.712 9.78562 503.04 11.3874L498.816 11.8274C498.68 11.0829 498.347 10.5301 497.815 10.1692C497.284 9.7969 496.441 9.61078 495.287 9.61078C494.156 9.61078 493.308 9.75742 492.743 10.0507C492.177 10.3327 491.894 10.8121 491.894 11.4889C491.894 12.0191 492.109 12.4421 492.539 12.758C492.98 13.0625 493.715 13.3163 494.744 13.5194C496.181 13.8127 497.453 14.1172 498.562 14.4331C499.681 14.7377 500.58 15.1043 501.259 15.5329C501.926 15.9616 502.458 16.5143 502.854 17.1911C503.261 17.8566 503.465 18.7139 503.465 19.763Z" fill="white"></path>
  <path d="M510.226 16.8696C510.226 18.6519 510.554 19.9999 511.21 20.9136C511.877 21.816 512.822 22.2672 514.043 22.2672C514.88 22.2672 515.564 22.0867 516.096 21.7258C516.639 21.3535 517.018 20.8064 517.233 20.0845L521.729 20.4737C520.428 23.7901 517.787 25.4483 513.806 25.4483C511.046 25.4483 508.926 24.6361 507.444 23.0117C505.962 21.3761 505.221 18.996 505.221 15.8713C505.221 12.8482 505.974 10.5245 507.478 8.90012C508.982 7.27577 511.114 6.46359 513.874 6.46359C516.509 6.46359 518.522 7.33781 519.913 9.08625C521.304 10.8234 522 13.3727 522 16.7343V16.8696H510.226ZM517.385 13.8916C517.295 12.4139 516.939 11.3085 516.317 10.5752C515.695 9.83075 514.858 9.4585 513.806 9.4585C512.686 9.4585 511.821 9.84767 511.21 10.626C510.611 11.4043 510.294 12.4929 510.26 13.8916H517.385Z" fill="white"></path>
  <path d="M121.632 52.2851C121.632 54.8345 121.134 57.0116 120.139 58.8164C119.155 60.6212 117.786 62.0031 116.033 62.9619C114.291 63.9094 112.278 64.3832 109.993 64.3832H100.323V40.5424H108.976C113.002 40.5424 116.118 41.5576 118.323 43.588C120.529 45.6072 121.632 48.5062 121.632 52.2851ZM116.593 52.2851C116.593 49.7245 115.926 47.773 114.591 46.4307C113.256 45.077 111.351 44.4002 108.874 44.4002H105.328V60.5254H109.569C111.006 60.5254 112.244 60.1926 113.285 59.5271C114.337 58.8502 115.151 57.8971 115.728 56.6675C116.304 55.438 116.593 53.9772 116.593 52.2851Z" fill="white"></path>
  <path d="M128.427 56.143C128.427 57.9253 128.755 59.2732 129.411 60.1869C130.078 61.0894 131.023 61.5406 132.244 61.5406C133.081 61.5406 133.765 61.3601 134.297 60.9991C134.84 60.6269 135.219 60.0798 135.434 59.3578L139.929 59.747C138.629 63.0634 135.988 64.7216 132.007 64.7216C129.247 64.7216 127.126 63.9094 125.645 62.2851C124.163 60.6494 123.422 58.2693 123.422 55.1447C123.422 52.1216 124.175 49.7978 125.679 48.1735C127.183 46.5491 129.315 45.7369 132.075 45.7369C134.71 45.7369 136.723 46.6112 138.114 48.3596C139.505 50.0968 140.201 52.6461 140.201 56.0076V56.143H128.427ZM135.586 53.165C135.496 51.6873 135.14 50.5818 134.518 49.8486C133.896 49.1041 133.059 48.7318 132.007 48.7318C130.887 48.7318 130.022 49.121 129.411 49.8994C128.812 50.6777 128.495 51.7662 128.461 53.165H135.586Z" fill="white"></path>
  <path d="M159.534 46.0753L152.765 64.3832H147.064L140.499 46.0753H145.537L148.744 56.3122C148.834 56.5942 148.976 57.0905 149.168 57.8012C149.372 58.5006 149.632 59.4143 149.948 60.5423C149.994 60.3844 150.084 60.0685 150.22 59.5947C150.367 59.121 150.525 58.6021 150.695 58.0381C150.865 57.474 151.012 57.0003 151.136 56.6167L154.546 46.0753H159.534Z" fill="white"></path>
  <path d="M165.023 56.143C165.023 57.9253 165.351 59.2732 166.007 60.1869C166.674 61.0894 167.619 61.5406 168.84 61.5406C169.677 61.5406 170.361 61.3601 170.893 60.9991C171.436 60.6269 171.815 60.0798 172.03 59.3578L176.525 59.747C175.225 63.0634 172.584 64.7216 168.603 64.7216C165.843 64.7216 163.722 63.9094 162.241 62.2851C160.759 60.6494 160.018 58.2693 160.018 55.1447C160.018 52.1216 160.77 49.7978 162.275 48.1735C163.779 46.5491 165.911 45.7369 168.671 45.7369C171.306 45.7369 173.319 46.6112 174.71 48.3596C176.101 50.0968 176.797 52.6461 176.797 56.0076V56.143H165.023ZM172.182 53.165C172.092 51.6873 171.736 50.5818 171.113 49.8486C170.491 49.1041 169.655 48.7318 168.603 48.7318C167.483 48.7318 166.618 49.121 166.007 49.8994C165.408 50.6777 165.091 51.7662 165.057 53.165H172.182Z" fill="white"></path>
  <path d="M184.152 39.2733V64.3832H179.385V39.2733H184.152Z" fill="white"></path>
  <path d="M205.453 55.2124C205.453 58.1791 204.627 60.5084 202.976 62.2005C201.325 63.8812 199.04 64.7216 196.122 64.7216C193.261 64.7216 191.016 63.8756 189.387 62.1836C187.758 60.4915 186.944 58.1678 186.944 55.2124C186.944 52.2682 187.758 49.9558 189.387 48.275C191.016 46.583 193.295 45.7369 196.224 45.7369C199.221 45.7369 201.506 46.5548 203.078 48.1904C204.661 49.8148 205.453 52.1554 205.453 55.2124ZM200.465 55.2124C200.465 53.0353 200.109 51.456 199.396 50.4746C198.684 49.4933 197.649 49.0026 196.292 49.0026C194.844 49.0026 193.758 49.5215 193.035 50.5592C192.311 51.5857 191.949 53.1368 191.949 55.2124C191.949 57.2541 192.299 58.8108 193.001 59.8824C193.713 60.9427 194.737 61.4729 196.071 61.4729C197.542 61.4729 198.639 60.954 199.363 59.9162C200.098 58.8672 200.465 57.2992 200.465 55.2124Z" fill="white"></path>
  <path d="M225.583 55.1447C225.583 58.2016 224.967 60.5648 223.734 62.2343C222.513 63.8925 220.782 64.7216 218.543 64.7216C215.885 64.7216 214.03 63.6387 212.978 61.4729H212.876C212.944 61.8113 212.978 62.8378 212.978 64.5524V71.5744H208.211V50.2885C208.211 49.4199 208.2 48.636 208.177 47.9366C208.154 47.2372 208.12 46.6168 208.075 46.0753H212.707C212.752 46.2107 212.786 46.442 212.808 46.7691C212.842 47.0849 212.865 47.4459 212.876 47.852C212.899 48.2581 212.91 48.6585 212.91 49.0533H212.978C213.51 47.9253 214.267 47.0849 215.251 46.5322C216.235 45.9682 217.434 45.6862 218.848 45.6862C220.986 45.6862 222.643 46.5096 223.819 48.1566C224.995 49.7922 225.583 52.1216 225.583 55.1447ZM220.612 55.1447C220.612 53.0917 220.296 51.5519 219.662 50.5254C219.04 49.4989 218.096 48.9857 216.829 48.9857C215.562 48.9857 214.59 49.5384 213.911 50.6438C213.244 51.7493 212.91 53.2947 212.91 55.28C212.91 57.2541 213.244 58.7826 213.911 59.8655C214.59 60.9371 215.551 61.4729 216.795 61.4729C218.073 61.4729 219.029 60.9484 219.662 59.8993C220.296 58.839 220.612 57.2541 220.612 55.1447Z" fill="white"></path>
  <path d="M233.176 54.5694V64.3832H228.409V50.1701C228.409 49.1887 228.392 48.3878 228.358 47.7674C228.335 47.1357 228.307 46.5717 228.273 46.0753H232.82C232.843 46.2107 232.871 46.5322 232.905 47.0398C232.939 47.5361 232.967 48.0494 232.99 48.5796C233.023 49.0985 233.04 49.4763 233.04 49.7132H233.108C233.696 48.3145 234.426 47.2993 235.297 46.6676C236.179 46.0359 237.231 45.72 238.452 45.72C239.855 45.72 240.98 46.0528 241.828 46.7183C242.688 47.3839 243.265 48.3822 243.559 49.7132H243.661C244.283 48.2919 245.029 47.2711 245.9 46.6506C246.771 46.0302 247.879 45.72 249.225 45.72C251.012 45.72 252.375 46.3292 253.314 47.5474C254.253 48.7544 254.722 50.4916 254.722 52.7589V64.3832H249.989V54.1125C249.989 52.4995 249.757 51.2925 249.293 50.4916C248.829 49.6907 248.134 49.2902 247.206 49.2902C246.279 49.2902 245.504 49.7414 244.882 50.6438C244.26 51.535 243.949 52.7702 243.949 54.3494V64.3832H239.216V54.1125C239.216 52.4995 238.984 51.2925 238.52 50.4916C238.056 49.6907 237.361 49.2902 236.433 49.2902C235.472 49.2902 234.686 49.7809 234.075 50.7623C233.476 51.7437 233.176 53.0127 233.176 54.5694Z" fill="white"></path>
  <path d="M262.213 56.143C262.213 57.9253 262.541 59.2732 263.197 60.1869C263.864 61.0894 264.809 61.5406 266.03 61.5406C266.867 61.5406 267.551 61.3601 268.083 60.9991C268.626 60.6269 269.005 60.0798 269.22 59.3578L273.715 59.747C272.415 63.0634 269.774 64.7216 265.793 64.7216C263.033 64.7216 260.912 63.9094 259.431 62.2851C257.949 60.6494 257.208 58.2693 257.208 55.1447C257.208 52.1216 257.96 49.7978 259.465 48.1735C260.969 46.5491 263.101 45.7369 265.861 45.7369C268.496 45.7369 270.509 46.6112 271.9 48.3596C273.291 50.0968 273.987 52.6461 273.987 56.0076V56.143H262.213ZM269.372 53.165C269.282 51.6873 268.926 50.5818 268.304 49.8486C267.682 49.1041 266.845 48.7318 265.793 48.7318C264.673 48.7318 263.808 49.121 263.197 49.8994C262.598 50.6777 262.281 51.7662 262.247 53.165H269.372Z" fill="white"></path>
  <path d="M281.342 54.5694V64.3832H276.575V50.1701C276.575 49.1887 276.558 48.3878 276.524 47.7674C276.502 47.1357 276.473 46.5717 276.439 46.0753H280.986C281.009 46.2107 281.037 46.5322 281.071 47.0398C281.105 47.5361 281.133 48.0494 281.156 48.5796C281.19 49.0985 281.207 49.4763 281.207 49.7132H281.274C281.919 48.3145 282.728 47.2993 283.7 46.6676C284.673 46.0359 285.832 45.72 287.178 45.72C289.124 45.72 290.617 46.3179 291.657 47.5136C292.698 48.7093 293.218 50.4577 293.218 52.7589V64.3832H288.468V54.1125C288.468 52.4995 288.196 51.2925 287.653 50.4916C287.11 49.6907 286.291 49.2902 285.193 49.2902C284.04 49.2902 283.107 49.7866 282.394 50.7792C281.693 51.7606 281.342 53.024 281.342 54.5694Z" fill="white"></path>
  <path d="M305.493 64.1125C304.34 64.496 302.999 64.6878 301.473 64.6878C300.07 64.6878 298.99 64.3099 298.232 63.5541C297.474 62.7871 297.095 61.6308 297.095 60.0854V49.2902H294.771V46.0753H297.333L298.826 41.7776H301.812V46.0753H305.29V49.2902H301.812V58.7995C301.812 59.6906 301.981 60.3505 302.321 60.7792C302.66 61.1965 303.186 61.4052 303.898 61.4052C304.238 61.4052 304.769 61.3263 305.493 61.1683V64.1125Z" fill="white"></path>
  <path d="M320.204 58.2919L318.083 64.3832H313.079L321.799 40.5424H327.703L336.389 64.3832H331.435L329.314 58.2919H320.204ZM324.751 44.2141C324.638 44.6653 324.479 45.2068 324.276 45.8385C324.072 46.4702 323.925 46.9157 323.835 47.1752L321.324 54.5355H328.195L325.616 47.0229C325.458 46.5604 325.311 46.0923 325.175 45.6185C325.039 45.1447 324.898 44.6766 324.751 44.2141Z" fill="white"></path>
  <path d="M346.391 71.7267C344.151 71.7267 342.347 71.298 340.979 70.4407C339.622 69.5947 338.785 68.3821 338.468 66.8028L343.235 66.2444C343.405 66.9777 343.767 67.553 344.321 67.9703C344.887 68.3877 345.622 68.5964 346.527 68.5964C347.85 68.5964 348.817 68.1903 349.428 67.3781C350.038 66.5659 350.344 65.3589 350.344 63.7571L350.378 60.9822H350.344C349.823 62.1102 349.071 62.9563 348.087 63.5203C347.103 64.073 345.888 64.3494 344.44 64.3494C342.302 64.3494 340.645 63.5485 339.469 61.9467C338.293 60.3449 337.705 58.055 337.705 55.077C337.705 52.0877 338.31 49.7809 339.52 48.1566C340.73 46.5322 342.489 45.72 344.796 45.72C346.131 45.72 347.256 45.9964 348.172 46.5491C349.1 47.0906 349.823 47.914 350.344 49.0195H350.429C350.429 48.7488 350.44 48.4104 350.462 48.0043C350.485 47.5982 350.513 47.209 350.547 46.8368C350.593 46.4645 350.632 46.2107 350.666 46.0753H355.179C355.111 47.2936 355.077 48.7036 355.077 50.3054V63.8248C355.077 66.4306 354.336 68.399 352.855 69.73C351.373 71.0611 349.218 71.7267 346.391 71.7267ZM350.378 54.9755C350.378 53.0917 350.038 51.6252 349.36 50.5762C348.692 49.5158 347.737 48.9857 346.493 48.9857C345.226 48.9857 344.27 49.4933 343.626 50.5085C342.992 51.5237 342.675 53.0465 342.675 55.077C342.675 57.0623 342.987 58.557 343.609 59.5609C344.242 60.5536 345.192 61.0499 346.459 61.0499C347.725 61.0499 348.692 60.5254 349.36 59.4763C350.038 58.4159 350.378 56.9157 350.378 54.9755Z" fill="white"></path>
  <path d="M362.84 56.143C362.84 57.9253 363.168 59.2732 363.824 60.1869C364.491 61.0894 365.435 61.5406 366.657 61.5406C367.494 61.5406 368.178 61.3601 368.71 60.9991C369.252 60.6269 369.631 60.0798 369.846 59.3578L374.342 59.747C373.041 63.0634 370.4 64.7216 366.419 64.7216C363.66 64.7216 361.539 63.9094 360.057 62.2851C358.576 60.6494 357.835 58.2693 357.835 55.1447C357.835 52.1216 358.587 49.7978 360.091 48.1735C361.595 46.5491 363.727 45.7369 366.487 45.7369C369.122 45.7369 371.136 46.6112 372.527 48.3596C373.918 50.0968 374.613 52.6461 374.613 56.0076V56.143H362.84ZM369.999 53.165C369.908 51.6873 369.552 50.5818 368.93 49.8486C368.308 49.1041 367.471 48.7318 366.419 48.7318C365.3 48.7318 364.434 49.121 363.824 49.8994C363.224 50.6777 362.907 51.7662 362.874 53.165H369.999Z" fill="white"></path>
  <path d="M381.969 54.5694V64.3832H377.202V50.1701C377.202 49.1887 377.185 48.3878 377.151 47.7674C377.128 47.1357 377.1 46.5717 377.066 46.0753H381.613C381.635 46.2107 381.663 46.5322 381.697 47.0398C381.731 47.5361 381.76 48.0494 381.782 48.5796C381.816 49.0985 381.833 49.4763 381.833 49.7132H381.901C382.546 48.3145 383.354 47.2993 384.327 46.6676C385.3 46.0359 386.459 45.72 387.805 45.72C389.75 45.72 391.243 46.3179 392.284 47.5136C393.324 48.7093 393.844 50.4577 393.844 52.7589V64.3832H389.094V54.1125C389.094 52.4995 388.823 51.2925 388.28 50.4916C387.737 49.6907 386.917 49.2902 385.82 49.2902C384.666 49.2902 383.733 49.7866 383.021 50.7792C382.319 51.7606 381.969 53.024 381.969 54.5694Z" fill="white"></path>
  <path d="M405.051 64.7216C402.269 64.7216 400.12 63.8982 398.604 62.2512C397.089 60.593 396.331 58.2862 396.331 55.3308C396.331 52.3077 397.094 49.9558 398.621 48.275C400.148 46.583 402.314 45.7369 405.119 45.7369C407.279 45.7369 409.066 46.2784 410.48 47.3613C411.894 48.4442 412.781 49.9388 413.143 51.8452L408.342 52.0821C408.206 51.1458 407.867 50.4013 407.324 49.8486C406.781 49.2846 406.012 49.0026 405.017 49.0026C403.784 49.0026 402.862 49.5158 402.252 50.5423C401.641 51.5576 401.336 53.0917 401.336 55.1447C401.336 57.2541 401.647 58.839 402.269 59.8993C402.902 60.9484 403.841 61.4729 405.085 61.4729C405.99 61.4729 406.747 61.1909 407.358 60.6269C407.969 60.0516 408.348 59.1999 408.495 58.0719L413.279 58.2919C413.109 59.5778 412.651 60.7058 411.905 61.6759C411.17 62.6348 410.214 63.3849 409.038 63.9264C407.862 64.4565 406.533 64.7216 405.051 64.7216Z" fill="white"></path>
  <path d="M418.073 71.5744C416.908 71.5744 415.907 71.5011 415.07 71.3544V67.9703C415.703 68.0606 416.252 68.1057 416.716 68.1057C417.824 68.1057 418.65 67.8068 419.192 67.2089C419.747 66.6111 420.284 65.6071 420.804 64.1971L413.543 46.0753H418.582L421.466 54.654C421.692 55.2744 421.946 56.0527 422.229 56.989C422.512 57.9253 422.829 59.0307 423.179 60.3054C423.439 59.2676 423.688 58.3088 423.926 57.4289C424.163 56.5491 424.423 55.6466 424.706 54.7217L427.421 46.0753H432.408L425.147 65.3477C424.853 66.126 424.542 66.8141 424.214 67.412C423.886 68.0098 423.552 68.54 423.213 69.0025C422.523 69.9387 421.771 70.5986 420.957 70.9822C420.142 71.377 419.181 71.5744 418.073 71.5744Z" fill="white"></path>
  <path d="M123.566 91.6262C123.566 94.1078 123.062 96.2793 122.056 98.1405C121.06 99.9905 119.652 101.429 117.831 102.455C116.022 103.482 113.895 103.995 111.452 103.995C108.953 103.995 106.804 103.499 105.006 102.506C103.207 101.502 101.828 100.075 100.866 98.2251C99.9048 96.3752 99.4241 94.1755 99.4241 91.6262C99.4241 89.0768 99.8992 86.8941 100.849 85.078C101.811 83.2618 103.19 81.8744 104.989 80.9156C106.798 79.9454 108.964 79.4604 111.486 79.4604C114.02 79.4604 116.186 79.9511 117.984 80.9325C119.782 81.9026 121.162 83.2957 122.124 85.1118C123.085 86.9279 123.566 89.0994 123.566 91.6262ZM118.459 91.6262C118.459 89.0543 117.848 87.0407 116.627 85.5856C115.405 84.1191 113.692 83.3859 111.486 83.3859C109.247 83.3859 107.517 84.1135 106.295 85.5687C105.074 87.0125 104.463 89.0317 104.463 91.6262C104.463 93.3633 104.746 94.8636 105.311 96.127C105.877 97.3904 106.68 98.3661 107.72 99.0542C108.772 99.731 110.016 100.069 111.452 100.069C113.692 100.069 115.417 99.3362 116.627 97.8698C117.848 96.4033 118.459 94.3221 118.459 91.6262Z" fill="white"></path>
  <path d="M132.024 88.5636V103.657H127.273V88.5636H124.593V85.3487H127.273V83.4367C127.273 81.7785 127.715 80.5489 128.597 79.748C129.479 78.9471 130.819 78.5467 132.617 78.5467C133.545 78.5467 134.552 78.6369 135.637 78.8174V81.88C135.185 81.7785 134.721 81.7277 134.246 81.7277C133.432 81.7277 132.855 81.8913 132.516 82.2184C132.188 82.5343 132.024 83.0983 132.024 83.9105V85.3487H135.637V88.5636H132.024Z" fill="white"></path>
  <path d="M149.924 89.5957V103.657H145.479V79.8157H151.196L161.766 98.3266C161.562 96.612 161.46 95.061 161.46 93.6735V79.8157H165.905V103.657H160.035L149.619 85.2979C149.72 86.1891 149.794 86.9956 149.839 87.7175C149.896 88.4282 149.924 89.0543 149.924 89.5957Z" fill="white"></path>
  <path d="M174.414 78.5467V82.0492H169.647V78.5467H174.414ZM174.414 85.3487V103.657H169.647V85.3487H174.414Z" fill="white"></path>
  <path d="M185.96 111C183.721 111 181.917 110.571 180.548 109.714C179.191 108.868 178.354 107.655 178.037 106.076L182.805 105.518C182.974 106.251 183.336 106.826 183.89 107.244C184.456 107.661 185.191 107.87 186.096 107.87C187.419 107.87 188.386 107.464 188.997 106.651C189.608 105.839 189.913 104.632 189.913 103.031L189.947 100.256H189.913C189.393 101.384 188.641 102.23 187.657 102.794C186.673 103.346 185.457 103.623 184.009 103.623C181.871 103.623 180.215 102.822 179.038 101.22C177.862 99.6182 177.274 97.3283 177.274 94.3503C177.274 91.3611 177.879 89.0543 179.089 87.4299C180.299 85.8055 182.058 84.9934 184.365 84.9934C185.7 84.9934 186.825 85.2697 187.741 85.8225C188.669 86.3639 189.393 87.1874 189.913 88.2928H189.998C189.998 88.0221 190.009 87.6837 190.032 87.2776C190.054 86.8715 190.083 86.4824 190.117 86.1101C190.162 85.7379 190.201 85.4841 190.235 85.3487H194.748C194.68 86.567 194.646 87.977 194.646 89.5788V103.098C194.646 105.704 193.905 107.672 192.424 109.003C190.942 110.334 188.788 111 185.96 111ZM189.947 94.2488C189.947 92.365 189.608 90.8986 188.929 89.8495C188.262 88.7892 187.306 88.259 186.062 88.259C184.795 88.259 183.839 88.7666 183.195 89.7818C182.561 90.7971 182.245 92.3199 182.245 94.3503C182.245 96.3357 182.556 97.8303 183.178 98.8342C183.811 99.8269 184.761 100.323 186.028 100.323C187.295 100.323 188.262 99.7987 188.929 98.7496C189.608 97.6893 189.947 96.189 189.947 94.2488Z" fill="white"></path>
  <path d="M202.409 95.4163C202.409 97.1986 202.737 98.5466 203.393 99.4603C204.06 100.363 205.004 100.814 206.226 100.814C207.063 100.814 207.747 100.633 208.279 100.272C208.822 99.9002 209.201 99.3531 209.415 98.6312L213.911 99.0204C212.611 102.337 209.97 103.995 205.988 103.995C203.229 103.995 201.108 103.183 199.627 101.558C198.145 99.9228 197.404 97.5427 197.404 94.418C197.404 91.3949 198.156 89.0712 199.66 87.4468C201.165 85.8225 203.297 85.0103 206.056 85.0103C208.692 85.0103 210.705 85.8845 212.096 87.6329C213.487 89.3701 214.183 91.9194 214.183 95.281V95.4163H202.409ZM209.568 92.4383C209.478 90.9606 209.121 89.8552 208.499 89.1219C207.877 88.3774 207.04 88.0052 205.988 88.0052C204.869 88.0052 204.004 88.3944 203.393 89.1727C202.793 89.951 202.477 91.0396 202.443 92.4383H209.568Z" fill="white"></path>
  <path d="M221.538 94.6718V103.657H216.771V89.6465C216.771 88.6425 216.754 87.8078 216.72 87.1423C216.697 86.4654 216.669 85.8676 216.635 85.3487H221.182C221.204 85.4502 221.227 85.6758 221.25 86.0255C221.272 86.3752 221.295 86.77 221.318 87.2099C221.34 87.6386 221.357 88.0447 221.368 88.4282C221.391 88.8117 221.402 89.0881 221.402 89.2573H221.47C221.923 87.9939 222.335 87.0859 222.709 86.5331C223.071 86.0029 223.5 85.6138 223.998 85.3656C224.496 85.1175 225.118 84.9934 225.864 84.9934C226.475 84.9934 226.967 85.078 227.34 85.2472V89.2235C226.582 89.0543 225.904 88.9697 225.304 88.9697C224.117 88.9697 223.189 89.4491 222.522 90.4079C221.866 91.3667 221.538 92.788 221.538 94.6718Z" fill="white"></path>
  <path d="M234.034 78.5467V82.0492H229.267V78.5467H234.034ZM234.034 85.3487V103.657H229.267V85.3487H234.034Z" fill="white"></path>
  <path d="M242.136 103.995C240.36 103.995 238.975 103.516 237.979 102.557C236.984 101.587 236.486 100.227 236.486 98.4789C236.486 96.5838 237.103 95.1456 238.336 94.1642C239.58 93.1828 241.378 92.6696 243.731 92.6245L247.683 92.5568V91.6262C247.683 90.4305 247.474 89.545 247.056 88.9697C246.637 88.3831 245.953 88.0898 245.003 88.0898C244.121 88.0898 243.47 88.2928 243.052 88.6989C242.645 89.0937 242.39 89.7536 242.288 90.6786L237.318 90.4417C237.94 86.8208 240.569 85.0103 245.207 85.0103C247.525 85.0103 249.312 85.5799 250.568 86.7192C251.823 87.8586 252.451 89.4773 252.451 91.5754V98.242C252.451 99.2685 252.564 99.9792 252.79 100.374C253.027 100.758 253.418 100.949 253.961 100.949C254.322 100.949 254.673 100.915 255.012 100.848V103.42C254.424 103.566 253.921 103.673 253.502 103.741C253.084 103.82 252.569 103.86 251.959 103.86C250.76 103.86 249.872 103.566 249.295 102.98C248.73 102.393 248.39 101.53 248.277 100.391H248.175C247.508 101.587 246.671 102.489 245.665 103.098C244.658 103.696 243.482 103.995 242.136 103.995ZM247.683 95.1794L245.24 95.2133C244.121 95.2697 243.335 95.3881 242.882 95.5686C242.419 95.7717 242.062 96.0762 241.813 96.4823C241.576 96.8884 241.457 97.4299 241.457 98.1067C241.457 98.9752 241.655 99.6239 242.051 100.053C242.458 100.47 242.995 100.679 243.663 100.679C244.409 100.679 245.093 100.476 245.715 100.069C246.326 99.6633 246.807 99.105 247.158 98.3943C247.508 97.6724 247.683 96.911 247.683 96.1101V95.1794Z" fill="white"></path>
  <path d="M541.025 19.7636C541.025 21.5346 540.296 22.9277 538.837 23.9429C537.389 24.9469 535.381 25.4489 532.814 25.4489C530.292 25.4489 528.358 25.0541 527.012 24.2644C525.677 23.4635 524.789 22.2227 524.348 20.542L528.539 19.9159C528.776 20.7845 529.183 21.3992 529.76 21.7602C530.348 22.1212 531.366 22.3017 532.814 22.3017C534.148 22.3017 535.121 22.1325 535.732 21.7941C536.343 21.4557 536.648 20.9255 536.648 20.2035C536.648 19.617 536.399 19.1545 535.902 18.8161C535.415 18.4664 534.584 18.1731 533.408 17.9362C532.514 17.7557 531.711 17.5809 530.999 17.4117C530.297 17.2425 529.692 17.0789 529.183 16.921C528.686 16.7518 528.279 16.5939 527.962 16.4472C527.023 15.9847 526.305 15.3925 525.807 14.6706C525.321 13.9486 525.078 13.0575 525.078 11.9972C525.078 10.2487 525.751 8.88944 527.097 7.91934C528.454 6.93796 530.371 6.44727 532.848 6.44727C535.031 6.44727 536.784 6.87028 538.107 7.71629C539.442 8.56231 540.273 9.78622 540.601 11.388L536.377 11.8279C536.241 11.0835 535.907 10.5307 535.376 10.1698C534.844 9.7975 534.001 9.61138 532.848 9.61138C531.717 9.61138 530.869 9.75802 530.303 10.0513C529.738 10.3333 529.455 10.8127 529.455 11.4895C529.455 12.0197 529.67 12.4427 530.099 12.7586C530.541 13.0631 531.276 13.3169 532.305 13.52C533.741 13.8133 535.014 14.1178 536.122 14.4337C537.242 14.7383 538.141 15.1049 538.82 15.5335C539.487 15.9622 540.018 16.5149 540.414 17.1917C540.821 17.8572 541.025 18.7145 541.025 19.7636Z" fill="white"></path>
</svg>
